<svg height="512" viewBox="0 0 64 64" width="512" xmlns="http://www.w3.org/2000/svg"><g id="Fill_Outline" data-name="Fill Outline"><g id="Color"><g><g><path d="m10 3h44a4 4 0 0 1 4 4v28a4 4 0 0 1 -4 4h-43a5 5 0 0 1 -5-5v-27a4 4 0 0 1 4-4z" fill="#aae1f9"/><path d="m38 31a24 24 0 0 1 -24-24v-4h-4a4 4 0 0 0 -4 4v27a5 5 0 0 0 5 5h43a4 4 0 0 0 4-4v-4z" fill="#57b7eb"/><g><path d="m21 19a5 5 0 0 1 -10 0c0-2.761 4.609-12.734 5-10 1 7 5 7.239 5 10z" fill="#c4f236"/><path d="m18 20a5 5 0 0 1 -5-5 17.987 17.987 0 0 1 1.547-5.26c-1.483 2.337-3.547 7.412-3.547 9.26a5 5 0 0 0 10 0v-.021a4.955 4.955 0 0 1 -3 1.021z" fill="#a1d51c"/><path d="m44 17h8l-4-10z" fill="#f9e109"/><path d="m44 17h4v-10z" fill="#fcbc04"/><path d="m35 15h-6l-4 10 2 4h10l2-4zm-3 11a2 2 0 1 1 2-2 2 2 0 0 1 -2 2z" fill="#d0d8da"/><rect fill="#f9e109" height="4" rx="2" width="14" x="25" y="29"/><path d="m27 33h10v6h-10z" fill="#a1d51c"/><path d="m44 17h8v22h-8z" fill="#c4f236"/><path d="m48 7-2.4 6h4.8z" fill="#93999a"/><path d="m12 23h8v4h-8z" fill="#d0d8da"/><path d="m20 27h-8l1 12h6z" fill="#f9e109"/><path d="m38 26a5.968 5.968 0 0 1 -4.046-1.579 2 2 0 1 1 -1.954-2.421 2.057 2.057 0 0 1 .362.036 5.972 5.972 0 0 1 -.362-2.036v-5h-3l-4 10 2 4h10l1.5-3z" fill="#93999a"/><path d="m27 29a2 2 0 0 0 0 4h10a2 2 0 0 0 2-2h-10a2 2 0 0 1 -2-2z" fill="#fcbc04"/><path d="m27 33v6h3a4 4 0 0 1 4-4h3v-2z" fill="#7ab92d"/><path d="m48 7-2.4 6h2.4z" fill="#656b76"/><path d="m48 31v-14h-4v22h8v-4a4 4 0 0 1 -4-4z" fill="#a1d51c"/><path d="m12 23h4v4h-4z" fill="#93999a"/><path d="m16 32v-5h-4l1 12h6l.256-3.075a4 4 0 0 1 -3.256-3.925z" fill="#fcbc04"/></g><path d="m17 45h30a2 2 0 0 1 2 2v2a0 0 0 0 1 0 0h-34a0 0 0 0 1 0 0v-2a2 2 0 0 1 2-2z" fill="#d0d8da"/><path d="m43 45h-22l3-6h16z" fill="#93999a"/><path d="m18 45h-1a2 2 0 0 0 -2 2v2h34v-2h-29a2 2 0 0 1 -2-2z" fill="#93999a"/><path d="m21 45 3-6h16z" fill="#656b76"/></g><g><path d="m41 53h19v8h-19z" fill="#aae1f9"/><path d="m54.232 55.4-3.232 1.6-.232-3.6 6.5-11.258a2 2 0 0 1 2.732-.73 2 2 0 0 1 .732 2.732z" fill="#f9e109"/><path d="m41 53h5v8h-5z" fill="#57b7eb"/><path d="m60 41.412-.018-.008a2.011 2.011 0 0 1 -.25.74l-5.289 9.156a8.008 8.008 0 0 1 -3.383 3.172l-.216.107.156 2.421 3.232-1.6 6.5-11.258a2 2 0 0 0 -.732-2.73z" fill="#fcbc04"/><path d="m51 59a8 8 0 0 1 -7.738-6h-2.262v8h19v-2z" fill="#57b7eb"/><path d="m43.262 53h-2.262v8h5v-3.764a8.017 8.017 0 0 1 -2.738-4.236z" fill="#4891d3"/></g><g><path d="m6 57h4v4h-4z" fill="#d0d8da"/><path d="m6 53h4v4h-4z" fill="#d0d8da"/><path d="m10 57h4v4h-4z" fill="#d0d8da"/><path d="m10 53h4v4h-4z" fill="#d0d8da"/><path d="m14 53h4v4h-4z" fill="#d0d8da"/><path d="m18 53h4v4h-4z" fill="#d0d8da"/><path d="m22 53h4v4h-4z" fill="#d0d8da"/><path d="m26 53h4v4h-4z" fill="#d0d8da"/><path d="m30 53h4v4h-4z" fill="#d0d8da"/><path d="m30 57h4v4h-4z" fill="#d0d8da"/><path d="m26 57h4v4h-4z" fill="#d0d8da"/><path d="m14 57h12v4h-12z" fill="#d0d8da"/><g fill="#93999a"><path d="m34 56a2 2 0 0 1 -2-2v-1h-2v4h4z"/><path d="m30 56a2 2 0 0 1 -2-2v-1h-2v4h4z"/><path d="m26 56a2 2 0 0 1 -2-2v-1h-2v4h4z"/><path d="m22 56a2 2 0 0 1 -2-2v-1h-2v4h4z"/><path d="m18 56a2 2 0 0 1 -2-2v-1h-2v4h4z"/><path d="m14 56a2 2 0 0 1 -2-2v-1h-2v4h4z"/><path d="m10 56a2 2 0 0 1 -2-2v-1h-2v4h4z"/><path d="m34 60a2 2 0 0 1 -2-2v-1h-2v4h4z"/><path d="m30 60a2 2 0 0 1 -2-2v-1h-2v4h4z"/><path d="m14 60a2 2 0 0 1 -2-2v-1h-2v4h4z"/><path d="m10 60a2 2 0 0 1 -2-2v-1h-2v4h4z"/><path d="m18 60a2 2 0 0 1 -2-2v-1h-2v4h4z"/><path d="m18 60h8v1h-8z"/></g></g></g></g><g id="Outline_copy" data-name="Outline copy"><g fill="#323232"><path d="m11 40h11.382l-2 4h-3.382a3 3 0 0 0 -3 3v2a1 1 0 0 0 1 1h34a1 1 0 0 0 1-1v-2a3 3 0 0 0 -3-3h-3.382l-2-4h12.382a5.006 5.006 0 0 0 5-5v-5a1 1 0 0 0 -2 0v5a3 3 0 0 1 -3 3h-1v-13a1 1 0 0 0 -2 0v13h-2v-20h2v3a1 1 0 0 0 2 0v-4c0-.013-.007-.024-.008-.038a.983.983 0 0 0 -.063-.333l-.008-.018-3.992-9.982a1 1 0 0 0 -1.858 0l-3.992 9.981-.008.018a.983.983 0 0 0 -.063.333c0 .014-.008.025-.008.038v18.001a1 1 0 0 0 2 0v-17h2v20h-9v-4.184a2.978 2.978 0 0 0 .429-5.437l1.471-2.932a1 1 0 0 0 .034-.818l-4-10a1 1 0 0 0 -.934-.629h-3a1 1 0 0 0 -1 1v6.184a3 3 0 1 0 2 0v-5.184h1.323l3.582 8.954-1.523 3.046h-8.764l-1.518-3.046 3.834-9.583a1 1 0 1 0 -1.858-.742l-4 10a1 1 0 0 0 .034.818l1.466 2.932a2.978 2.978 0 0 0 .424 5.437v4.184h-5.913l.913-10.917c0-.015-.006-.027 0-.042s0-.026 0-.041v-4a.977.977 0 0 0 -.151-.5 5.9 5.9 0 0 0 1.151-3.5c0-1.515-.863-2.438-1.776-3.417a10.834 10.834 0 0 1 -3.234-6.725 1.339 1.339 0 0 0 -1.38-1.325c-2.229.159-5.61 9.45-5.61 11.467a5.9 5.9 0 0 0 1.151 3.5.977.977 0 0 0 -.151.5v4a1 1 0 0 0 1 1h6.913l-.833 10h-4.16l-.59-7.083a1 1 0 0 0 -1.993.166l.576 6.917h-.913a4 4 0 0 1 -4-4v-10a1 1 0 0 0 -2 0v10a6.006 6.006 0 0 0 6 6zm37.923-28h-1.846l.923-2.308zm-2.646 2h3.446l.8 2h-5.046zm-14.277 11a1 1 0 1 1 1-1 1 1 0 0 1 -1 1zm-16.749-14.515a12.405 12.405 0 0 0 3.511 6.462c.838.897 1.238 1.358 1.238 2.053a3.951 3.951 0 0 1 -1.378 3h-5.244a3.951 3.951 0 0 1 -1.378-3c0-1.745 1.985-6.39 3.251-8.515zm-2.251 13.515h6v2h-6zm35 23v1h-32v-1a1 1 0 0 1 1-1h30a1 1 0 0 1 1 1zm-11-17a1 1 0 0 1 0 2h-10a1 1 0 0 1 0-2zm-9 4h8v4h-8zm11.382 6 2 4h-18.764l2-4z"/><path d="m6 21a1 1 0 0 0 1-1v-13a3 3 0 0 1 3-3h44a3 3 0 0 1 3 3v19a1 1 0 0 0 2 0v-19a5.006 5.006 0 0 0 -5-5h-44a5.006 5.006 0 0 0 -5 5v13a1 1 0 0 0 1 1z"/><path d="m49.8 54 .2 3.064a1 1 0 0 0 1 .936.983.983 0 0 0 .442-.1l3.233-1.6a1.006 1.006 0 0 0 .423-.4l6.5-11.258a3 3 0 1 0 -5.2-3l-5.976 10.358h-9.422a1 1 0 0 0 -1 1v8a1 1 0 0 0 1 1h19a1 1 0 0 0 1-1v-8a1 1 0 0 0 -2 0v7h-12v-6zm8.33-11.356a1 1 0 1 1 1.732 1l-6.349 11-1.616.8-.116-1.8zm-13.13 17.356h-3v-6h3z"/><path d="m34 52h-28a1 1 0 0 0 -1 1v8a1 1 0 0 0 1 1h28a1 1 0 0 0 1-1v-8a1 1 0 0 0 -1-1zm-1 4h-2v-2h2zm-4 0h-2v-2h2zm-4 0h-2v-2h2zm-4 0h-2v-2h2zm-4 0h-2v-2h2zm-4 0h-2v-2h2zm-6-2h2v2h-2zm0 4h2v2h-2zm4 0h2v2h-2zm4 0h10v2h-10zm12 0h2v2h-2zm6 2h-2v-2h2z"/></g></g></g></svg>